<?xml version="1.0" encoding="utf-8"?>
<!-- Generator: Adobe Illustrator 23.0.6, SVG Export Plug-In . SVG Version: 6.00 Build 0)  -->
<svg version="1.1" id="Layer_1" xmlns="http://www.w3.org/2000/svg" xmlns:xlink="http://www.w3.org/1999/xlink" x="0px" y="0px"
	 viewBox="0 0 88.9 22" style="enable-background:new 0 0 88.9 22;" xml:space="preserve">
<style type="text/css">
	.st0{fill:#282846;}
	.st1{fill-rule:evenodd;clip-rule:evenodd;fill:#282846;}
</style>
<title>OZ_subbrand_name_security_dark</title>
<desc>Created with Sketch.</desc>
<g id="exports">
	<g id="security_dark" transform="translate(-18.000000, 0.000000)">
		<path id="Security" class="st0" d="M50.7,16.8c-2.3,0-3.9-1.4-3.9-3.4h1.9c0,0.9,0.8,1.6,2.1,1.6c1.1,0,1.8-0.5,1.8-1.2
			c0-2.3-5.5-0.5-5.5-4.6c0-1.6,1.3-3,3.5-3c2,0,3.6,1,3.7,3.2h-2c0-0.9-0.6-1.4-1.7-1.4c-1.1,0-1.6,0.5-1.6,1.2
			c0,2.1,5.5,0.4,5.5,4.5C54.6,15.4,53.2,16.8,50.7,16.8z M59.7,16.8c-2.3,0-3.9-1.7-3.9-4c0-2.4,1.6-4.1,3.9-4.1
			c2.5,0,3.8,1.8,3.8,4v0.6h-5.9c0.1,1.2,0.9,2,2.1,2c0.9,0,1.7-0.4,1.9-1.1h1.8C63,15.8,61.7,16.8,59.7,16.8z M57.7,12h4
			c-0.1-1-0.9-1.7-2-1.7C58.6,10.2,57.8,11,57.7,12z M68.7,16.8c-2.4,0-4-1.8-4-4s1.6-4,4-4c2,0,3.5,1.2,3.8,3h-2
			c-0.2-0.8-1-1.3-1.8-1.3c-1.3,0-2.1,1-2.1,2.3c0,1.3,0.9,2.3,2.1,2.3c0.9,0,1.6-0.5,1.8-1.2h2C72.2,15.6,70.7,16.8,68.7,16.8z
			 M76.9,16.8c-1.7,0-2.8-1.2-2.8-2.9v-5h1.9v4.6c0,0.9,0.6,1.6,1.5,1.6c0.9,0,1.6-0.7,1.6-1.7V8.9H81v7.7h-1.8v-0.9h-0.1
			C78.8,16.3,78,16.8,76.9,16.8z M83.1,16.6V8.9h1.8v1.3H85c0.2-0.6,1-1.3,2-1.3h0.7v1.8h-0.8c-1.2,0-2,0.9-2,2.3v3.7H83.1z
			 M90.3,7.9c-0.7,0-1.2-0.4-1.2-1.1c0-0.7,0.5-1.1,1.2-1.1s1.2,0.4,1.2,1.1C91.5,7.5,91,7.9,90.3,7.9z M89.4,16.6V8.9h1.9v7.7H89.4
			z M96.6,16.6c-1.6,0-2.6-0.9-2.6-2.6v-3.6h-1.3V8.9h0.9c0.3,0,0.6-0.2,0.6-0.6V6.8h1.8v2.1H98v1.5h-2.1V14c0,0.6,0.3,1.1,1.1,1.1
			h1v1.6H96.6z M99.8,20v-1.7h0.8c0.7,0,1-0.3,1.2-0.9l0.2-0.5L99,8.9h2l1.9,5.4h0.1l1.9-5.4h2l-3.4,9c-0.5,1.3-1.3,2.1-2.8,2.1
			H99.8z"/>
		<g id="OZ_subbrand_ic_security">
			<path id="Combined-Shape_1_" class="st1" d="M34.7,5.7l0.9,11.9L26.8,22L18,17.6l0.9-11.9l7.9,0.9L34.7,5.7z M34.7,2.9l-7.9,0.9
				l-7.9-0.9V0l7.9,0.9L34.7,0V2.9z"/>
		</g>
	</g>
</g>
</svg>
