<?xml version="1.0" encoding="UTF-8"?>
<svg width="630px" height="180px" viewBox="0 0 630 180" version="1.1" xmlns="http://www.w3.org/2000/svg" xmlns:xlink="http://www.w3.org/1999/xlink">
    <title>OZ_subbrand_name_security Copy 3_blue</title>
    <g id="exports" stroke="none" stroke-width="1" fill="none" fill-rule="evenodd">
        <g id="OZ_subbrand_name_security-Copy-3" fill="#4E5EE4">
            <path d="M268.24,136 L274,119.44 L308.92,119.44 L314.8,136 L331.72,136 L301.72,52 L281.68,52 L251.8,136 L268.24,136 Z M304.36,105.16 L278.68,105.16 L291.04,69.76 L292,69.76 L304.36,105.16 Z M363.52,137.56 C372.4,137.56 378.64,133 381.16,128.32 L382.12,128.32 L382.12,136 L397,136 L397,72.88 L381.4,72.88 L381.4,109.12 C381.4,117.04 376,123.16 368.44,123.16 C361.24,123.16 356.2,117.88 356.2,110.2 L356.2,72.88 L340.6,72.88 L340.6,114.16 C340.6,127.6 349.36,137.56 363.52,137.56 Z M439.36,137.56 C450.88,137.56 456.52,130.6 458.32,127.96 L459.16,127.96 L459.16,136 L474.52,136 L474.52,46 L458.92,46 L458.92,81.04 L458.08,81.04 C455.92,77.8 449.8,71.32 438.88,71.32 C421.6,71.32 409.6,85 409.6,104.8 C409.6,124.36 421.72,137.56 439.36,137.56 Z M442.36,123.52 C432.28,123.52 425.44,115.96 425.44,104.56 C425.44,93.4 432.28,85.48 442.24,85.48 C452.08,85.48 459.28,92.68 459.28,104.56 C459.28,115.12 452.8,123.52 442.36,123.52 Z M498.28,64.48 C503.92,64.48 507.88,61 507.88,55.36 C507.88,49.96 503.92,46.36 498.28,46.36 C492.64,46.36 488.68,49.96 488.68,55.36 C488.68,61 492.64,64.48 498.28,64.48 Z M506.08,136 L506.08,72.88 L490.48,72.88 L490.48,136 L506.08,136 Z M561.04,136 L561.04,123.04 L552.64,123.04 C546.64,123.04 544,119.68 544,114.4 L544,85.36 L561.4,85.36 L561.4,72.88 L544,72.88 L544,55.48 L529.36,55.48 L529.36,68.2 C529.36,71.2 527.56,73 524.8,73 L517.72,73 L517.72,85.36 L528.4,85.36 L528.4,115 C528.4,128.56 536.32,136 549.4,136 L561.04,136 Z M597.16,137.56 C614.08,137.56 623.8,128.92 623.8,116.92 C623.8,89.56 586.72,102.16 586.72,90.16 C586.72,86.08 590.8,83.32 597.16,83.32 C604,83.32 607.6,86.32 608.32,90.88 L622.12,90.88 C621.16,78.28 610.96,71.32 597.28,71.32 C581.68,71.32 572.44,79.96 572.44,90.64 C572.44,117.04 608.68,104.32 608.68,117.76 C608.68,122.2 604.6,125.32 597.4,125.32 C590.32,125.32 586,122.44 585.4,117.04 L571,117.04 C571.6,129.52 580.12,137.56 597.16,137.56 Z" id="Audits" fill-rule="nonzero"></path>
            <g id="ic/-audits-copy-5">
                <path d="M154.8,46.8 L162,144 L90,180 L18,144 L25.2,46.8 L90,53.98272 L154.8,46.8 Z M154.8,8.34887715e-14 L154.8,23.4 L90,30.58272 L25.2,23.4 L25.2,8.34887715e-14 L90,7.18272 L154.8,8.34887715e-14 Z" id="Combined-Shape"></path>
            </g>
        </g>
    </g>
</svg>