<?xml version="1.0" encoding="UTF-8"?>
<svg width="728px" height="180px" viewBox="0 0 728 180" version="1.1" xmlns="http://www.w3.org/2000/svg" xmlns:xlink="http://www.w3.org/1999/xlink">
    <!-- Generator: Sketch 55 (78076) - https://sketchapp.com -->
    <title>OZ_subbrand_name_security_blue</title>
    <desc>Created with Sketch.</desc>
    <g id="exports" stroke="none" stroke-width="1" fill="none" fill-rule="evenodd">
        <g id="security_blue" transform="translate(-18.000000, 0.000000)" fill="#4E5EE4">
            <path d="M285.88,137.56 C266.68,137.56 253.96,126.16 253.96,109.48 L269.44,109.48 C269.56,117.04 275.8,122.92 286.36,122.92 C295.36,122.92 301.12,119.08 301.12,112.72 C301.12,93.52 256.48,109 256.48,74.68 C256.48,61.36 267.04,50.44 285.52,50.44 C301.48,50.44 315.04,58.84 315.52,76.36 L299.56,76.36 C299.44,69.4 294.52,64.72 285.52,64.72 C276.64,64.72 272.32,69.16 272.32,74.44 C272.32,91.96 317.56,77.56 317.56,111.52 C317.56,126.4 306.04,137.56 285.88,137.56 Z M358.96,137.56 C340.36,137.56 327.16,123.64 327.16,104.8 C327.16,84.88 340.48,71.32 358.96,71.32 C379.24,71.32 390.28,86.32 390.28,104.08 L390.28,109 L342.28,109 C342.76,118.6 349.36,125.08 359.44,125.08 C367.12,125.08 373,121.48 375.16,116.32 L389.68,116.32 C386.56,129.16 375.28,137.56 358.96,137.56 Z M342.52,97.96 L375.4,97.96 C374.68,89.44 368.08,83.8 358.96,83.8 C350.2,83.8 343.48,90.04 342.52,97.96 Z M433.12,137.56 C413.32,137.56 400.12,123.04 400.12,104.44 C400.12,85.84 413.32,71.32 433.12,71.32 C449.32,71.32 461.92,81.28 464.32,96.16 L448.36,96.16 C446.44,89.92 440.56,85.48 433.24,85.48 C422.68,85.48 415.96,93.88 415.96,104.44 C415.96,115.36 423.04,123.4 433.36,123.4 C440.56,123.4 446.44,119.32 448.24,113.2 L464.2,113.2 C461.8,127.84 449.32,137.56 433.12,137.56 Z M500.32,137.56 C486.16,137.56 477.4,127.6 477.4,114.16 L477.4,72.88 L493,72.88 L493,110.2 C493,117.88 498.04,123.16 505.24,123.16 C512.8,123.16 518.2,117.04 518.2,109.12 L518.2,72.88 L533.8,72.88 L533.8,136 L518.92,136 L518.92,128.32 L517.96,128.32 C515.44,133 509.2,137.56 500.32,137.56 Z M550.36,136 L550.36,72.88 L565.12,72.88 L565.12,83.2 L566.08,83.2 C568.12,78.28 573.88,72.64 582.64,72.64 L588.4,72.64 L588.4,87.52 L581.92,87.52 C571.96,87.52 565.96,94.84 565.96,106.12 L565.96,136 L550.36,136 Z M609.64,64.48 C604,64.48 600.04,61 600.04,55.36 C600.04,49.96 604,46.36 609.64,46.36 C615.28,46.36 619.24,49.96 619.24,55.36 C619.24,61 615.28,64.48 609.64,64.48 Z M601.84,136 L601.84,72.88 L617.44,72.88 L617.44,136 L601.84,136 Z M660.76,136 C647.68,136 639.76,128.56 639.76,115 L639.76,85.36 L629.08,85.36 L629.08,73 L636.16,73 C638.92,73 640.72,71.2 640.72,68.2 L640.72,55.48 L655.36,55.48 L655.36,72.88 L672.76,72.88 L672.76,85.36 L655.36,85.36 L655.36,114.4 C655.36,119.68 658,123.04 664,123.04 L672.4,123.04 L672.4,136 L660.76,136 Z M687.4,163.6 L687.4,149.68 L693.88,149.68 C699.28,149.68 702.28,147.04 704.08,142.36 L705.76,137.92 L680.68,72.88 L697.12,72.88 L712.84,117.28 L713.8,117.28 L729.04,72.88 L745.72,72.88 L717.88,146.8 C713.92,157.48 707.44,163.6 695.2,163.6 L687.4,163.6 Z" id="Security" fill-rule="nonzero"></path>
            <g id="OZ_subbrand_ic_security">
                <path d="M154.8,46.8 L162,144 L90,180 L18,144 L25.2,46.8 L90,53.98272 L154.8,46.8 Z M154.8,23.4 L90,30.58272 L25.2,23.4 L25.2,1.13686838e-13 L90,7.18272 L154.8,1.13686838e-13 L154.8,23.4 Z" id="Combined-Shape"></path>
            </g>
        </g>
    </g>
</svg>