<?xml version="1.0" encoding="utf-8"?>
<!-- Generator: Adobe Illustrator 23.0.6, SVG Export Plug-In . SVG Version: 6.00 Build 0)  -->
<svg version="1.1" id="Layer_1" xmlns="http://www.w3.org/2000/svg" xmlns:xlink="http://www.w3.org/1999/xlink" x="0px" y="0px"
	 viewBox="0 0 138.5 22" style="enable-background:new 0 0 138.5 22;" xml:space="preserve">
<style type="text/css">
	.st0{fill-rule:evenodd;clip-rule:evenodd;fill:#282846;}
	.st1{fill:#282846;}
</style>
<title>OZ_subbrand_name_security_dark</title>
<desc>Created with Sketch.</desc>
<g>
	<path id="Combined-Shape_1_" class="st0" d="M16.7,5.7l0.9,11.9L8.8,22L0,17.6L0.9,5.7l7.9,0.9L16.7,5.7z M16.7,2.9L8.8,3.7
		L0.9,2.9V0l7.9,0.9L16.7,0V2.9z"/>
	<g>
		<path class="st1" d="M28.8,13.4h1.9c0,0.9,0.8,1.6,2.1,1.6c1.1,0,1.8-0.5,1.8-1.2c0-2.3-5.4-0.5-5.4-4.6c0-1.6,1.3-3,3.5-3
			c1.9,0,3.6,1,3.7,3.2h-1.9c0-0.8-0.6-1.4-1.7-1.4c-1.1,0-1.6,0.5-1.6,1.2c0,2.1,5.5,0.4,5.5,4.5c0,1.8-1.4,3.2-3.9,3.2
			C30.4,16.8,28.8,15.4,28.8,13.4z"/>
		<path class="st1" d="M37.8,12.8c0-2.4,1.6-4.1,3.9-4.1c2.5,0,3.8,1.8,3.8,4v0.6h-5.8c0.1,1.2,0.9,2,2.1,2c0.9,0,1.7-0.4,1.9-1.1
			h1.8c-0.4,1.6-1.8,2.6-3.7,2.6C39.4,16.8,37.8,15.1,37.8,12.8z M43.6,12c-0.1-1-0.9-1.7-2-1.7c-1.1,0-1.9,0.8-2,1.7H43.6z"/>
		<path class="st1" d="M46.7,12.8c0-2.3,1.6-4,4-4c2,0,3.5,1.2,3.8,3h-1.9c-0.2-0.8-1-1.3-1.8-1.3c-1.3,0-2.1,1-2.1,2.3
			c0,1.3,0.9,2.3,2.1,2.3c0.9,0,1.6-0.5,1.8-1.2h1.9c-0.3,1.8-1.8,3-3.8,3C48.3,16.8,46.7,15.1,46.7,12.8z"/>
		<path class="st1" d="M56.1,14v-5H58v4.5c0,0.9,0.6,1.6,1.5,1.6c0.9,0,1.6-0.7,1.6-1.7V8.9H63v7.7h-1.8v-0.9H61
			c-0.3,0.6-1.1,1.1-2.1,1.1C57.1,16.8,56.1,15.6,56.1,14z"/>
		<path class="st1" d="M65,8.9h1.8v1.3h0.1c0.2-0.6,1-1.3,2-1.3h0.7v1.8h-0.8c-1.2,0-1.9,0.9-1.9,2.3v3.6H65V8.9z"/>
		<path class="st1" d="M71,6.8c0-0.7,0.5-1.1,1.2-1.1c0.7,0,1.2,0.4,1.2,1.1c0,0.7-0.5,1.1-1.2,1.1C71.5,7.9,71,7.5,71,6.8z
			 M71.2,8.9h1.9v7.7h-1.9V8.9z"/>
		<path class="st1" d="M75.9,14.1v-3.6h-1.3V9h0.9C75.8,9,76,8.7,76,8.4V6.8h1.8v2.1h2.1v1.5h-2.1V14c0,0.6,0.3,1.1,1.1,1.1h1v1.6
			h-1.4C76.8,16.6,75.9,15.7,75.9,14.1z"/>
		<path class="st1" d="M81.7,18.3h0.8c0.7,0,1-0.3,1.2-0.9l0.2-0.5l-3.1-7.9h2l1.9,5.4h0.1l1.9-5.4h2l-3.4,9c-0.5,1.3-1.3,2-2.8,2
			h-1V18.3z"/>
		<path class="st1" d="M96.8,6.4h2.4l3.7,10.2h-2.1l-0.7-2h-4.3l-0.7,2h-2L96.8,6.4z M99.6,12.9l-1.5-4.3H98l-1.5,4.3H99.6z"/>
		<path class="st1" d="M104,14v-5h1.9v4.5c0,0.9,0.6,1.6,1.5,1.6c0.9,0,1.6-0.7,1.6-1.7V8.9h1.9v7.7h-1.8v-0.9H109
			c-0.3,0.6-1.1,1.1-2.1,1.1C105.1,16.8,104,15.6,104,14z"/>
		<path class="st1" d="M112.4,12.8c0-2.4,1.5-4.1,3.6-4.1c1.3,0,2.1,0.8,2.3,1.2h0.1V5.7h1.9v11h-1.9v-1h-0.1
			c-0.2,0.3-0.9,1.2-2.3,1.2C113.9,16.8,112.4,15.2,112.4,12.8z M118.5,12.8c0-1.4-0.9-2.3-2.1-2.3c-1.2,0-2,1-2,2.3
			c0,1.4,0.8,2.3,2.1,2.3C117.7,15.1,118.5,14.1,118.5,12.8z"/>
		<path class="st1" d="M122.1,6.8c0-0.7,0.5-1.1,1.2-1.1c0.7,0,1.2,0.4,1.2,1.1c0,0.7-0.5,1.1-1.2,1.1
			C122.6,7.9,122.1,7.5,122.1,6.8z M122.3,8.9h1.9v7.7h-1.9V8.9z"/>
		<path class="st1" d="M126.9,14.1v-3.6h-1.3V9h0.9c0.3,0,0.6-0.2,0.6-0.6V6.8h1.8v2.1h2.1v1.5h-2.1V14c0,0.6,0.3,1.1,1.1,1.1h1v1.6
			h-1.4C127.9,16.6,126.9,15.7,126.9,14.1z"/>
		<path class="st1" d="M132.1,14.3h1.8c0.1,0.7,0.6,1,1.5,1c0.9,0,1.4-0.4,1.4-0.9c0-1.6-4.4-0.1-4.4-3.3c0-1.3,1.1-2.4,3-2.4
			c1.7,0,2.9,0.8,3,2.4h-1.7c-0.1-0.6-0.5-0.9-1.4-0.9c-0.8,0-1.3,0.3-1.3,0.8c0,1.5,4.5-0.1,4.5,3.3c0,1.5-1.2,2.5-3.2,2.5
			C133.2,16.8,132.2,15.8,132.1,14.3z"/>
	</g>
</g>
</svg>
